<svg width="1366" height="768" viewBox="0 0 1366 768" fill="none" xmlns="http://www.w3.org/2000/svg">
<rect opacity="0.2" width="1366" height="768" fill="url(#paint0_linear_5045_360)"/>
<path opacity="0.4" d="M1114.1 238.176C1003.68 185.631 954.974 329.319 878.833 352.96C802.757 387.547 729.402 347.064 684.107 381.766C612.31 436.772 643.822 533.002 689.785 573.492C755.699 631.556 872.833 610.658 993.905 547.874C1145.59 469.213 1210.92 284.249 1114.1 238.176Z" fill="#98C3E8"/>
<path opacity="0.2" d="M747.16 295.447C750.974 304.981 739.533 319.854 723.135 324.812C709.025 329.077 695.296 328.625 691.483 318.71C688.109 309.939 698.729 300.405 710.932 295.447C723.135 290.49 743.347 285.914 747.16 295.447Z" fill="#98C3E8"/>
<path opacity="0.2" d="M871.863 275.998C868.895 268.417 879.349 250.727 892.305 246.862C903.453 243.536 913.896 235.7 916.862 243.583C919.486 250.557 911.453 266.331 901.807 270.213C892.16 274.096 874.831 283.579 871.863 275.998Z" fill="#98C3E8"/>
<path opacity="0.2" d="M863.315 651.414C860.347 643.833 869.434 632.079 882.39 628.215C893.538 624.889 904.365 625.306 907.331 633.189C909.955 640.163 901.538 647.683 891.891 651.566C882.245 655.448 866.282 658.994 863.315 651.414Z" fill="#98C3E8"/>
<path opacity="0.2" d="M997.383 612.771C991.209 598.256 1010.89 566.005 1037.81 558.619C1060.97 552.263 1098.37 565.262 1104.54 580.356C1110 593.707 1074.25 591.499 1054.21 598.922C1034.16 606.346 1003.56 627.285 997.383 612.771Z" fill="#98C3E8"/>
<mask id="mask0_5045_360" style="mask-type:alpha" maskUnits="userSpaceOnUse" x="653" y="229" width="494" height="375">
<path d="M1100.64 239.346C993.429 192.001 950.453 331.279 878.071 356.1C806.036 391.426 734.666 354.621 692.141 389.196C624.736 444.001 657.436 535.484 702.546 573.061C767.237 626.949 878.988 603.614 993.429 539.965C1136.81 460.222 1194.65 280.86 1100.64 239.346Z" fill="#98C3E8"/>
</mask>
<g mask="url(#mask0_5045_360)">
<rect x="572.819" y="168.001" width="614.101" height="519.772" fill="url(#paint1_linear_5045_360)"/>
<path d="M650.303 333.558C706.612 361.953 769.658 441.432 769.658 479.383C769.658 526.066 670.677 597.615 625.277 638.202L1012.7 663.228C998.903 601.465 964.069 464.158 985.267 433.662C1012.7 394.198 1123.71 403.823 1185.96 411.042L1202.8 235.379C1172.48 248.052 1104.62 284.468 1067.56 274.843C1033.26 265.933 967.46 227.518 939.547 203.133" stroke="white" stroke-opacity="0.2" stroke-width="15"/>
<path d="M795.166 290.243C810.566 370.455 852.437 517.499 896.714 463.982C952.06 397.085 995.855 310.457 1037.24 367.728C1070.36 413.545 1119.06 503.927 1139.27 543.392" stroke="white" stroke-opacity="0.2" stroke-width="15"/>
<path fill-rule="evenodd" clip-rule="evenodd" d="M968.726 337.015C968.726 340.385 965.995 343.116 962.625 343.116C959.255 343.116 956.523 340.385 956.523 337.015C956.523 333.645 959.255 330.913 962.625 330.913C965.995 330.913 968.726 333.645 968.726 337.015ZM716.271 468.963C719.641 468.963 722.373 466.231 722.373 462.861C722.373 459.491 719.641 456.76 716.271 456.76C712.901 456.76 710.169 459.491 710.169 462.861C710.169 466.231 712.901 468.963 716.271 468.963ZM848.982 546.759C852.351 546.759 855.083 544.027 855.083 540.657C855.083 537.287 852.351 534.555 848.982 534.555C845.612 534.555 842.88 537.287 842.88 540.657C842.88 544.027 845.612 546.759 848.982 546.759ZM1057.96 456.759C1061.33 456.759 1064.06 454.028 1064.06 450.658C1064.06 447.288 1061.33 444.556 1057.96 444.556C1054.59 444.556 1051.86 447.288 1051.86 450.658C1051.86 454.028 1054.59 456.759 1057.96 456.759Z" fill="white" fill-opacity="0.6"/>
<circle cx="693.389" cy="529.217" r="12.7795" stroke="white" stroke-opacity="0.4" stroke-width="8"/>
<circle cx="1135.76" cy="317.947" r="12.7795" stroke="white" stroke-opacity="0.4" stroke-width="8"/>
<circle cx="945.082" cy="495.658" r="12.7795" stroke="white" stroke-opacity="0.4" stroke-width="8"/>
</g>
<g filter="url(#filter0_d_5045_360)">
<rect x="983.217" y="282.863" width="67.118" height="67.118" rx="10" fill="white"/>
</g>
<g clip-path="url(#clip0_5045_360)">
<path d="M1013.73 328.625V319.473H1019.83V328.625H1027.45V316.422H1032.03L1016.78 302.693L1001.52 316.422H1006.1V328.625H1013.73Z" fill="#5A98D0"/>
</g>
<g filter="url(#filter1_d_5045_360)">
<path d="M980.687 188.864H959.576C956.662 188.864 954.301 190.608 954.301 192.758V208.343C954.301 210.493 956.662 212.237 959.576 212.237H980.687C983.6 212.237 985.962 210.493 985.962 208.343V192.758C985.962 190.608 983.6 188.864 980.687 188.864Z" fill="#56CCF2"/>
</g>
<g clip-path="url(#clip1_5045_360)">
<path d="M978.053 199.733H974.844L977.338 197.88L976.252 197.068L972.666 199.733H971.127V198.589L974.713 195.923L973.62 195.117L971.127 196.97V194.585H969.587V196.97L967.094 195.117L966.001 195.923L969.587 198.589V199.733H968.048L964.462 197.068L963.376 197.88L965.87 199.733H962.661V200.878H965.87L963.376 202.731L964.462 203.543L968.048 200.878H969.587V202.022L966.001 204.688L967.094 205.494L969.587 203.641V206.026H971.127V203.641L973.62 205.494L974.713 204.688L971.127 202.022V200.878H972.666L976.252 203.543L977.338 202.731L974.844 200.878H978.053V199.733Z" fill="white"/>
</g>
<g filter="url(#filter2_d_5045_360)">
<path d="M1114.5 247.787H1093.39C1090.47 247.787 1088.11 249.53 1088.11 251.681V267.265C1088.11 269.416 1090.47 271.159 1093.39 271.159H1114.5C1117.41 271.159 1119.77 269.416 1119.77 267.265V251.681C1119.77 249.53 1117.41 247.787 1114.5 247.787Z" fill="#F2C94C"/>
</g>
<path d="M1111.2 257.512C1111.2 254.652 1108.12 252.364 1104.27 252.364C1100.42 252.364 1097.35 254.652 1097.35 257.512C1097.35 259.286 1098.58 260.887 1100.42 261.803V263.233C1100.42 263.976 1101.04 264.606 1101.96 264.835V264.949C1101.96 265.921 1102.96 266.665 1104.27 266.665C1105.58 266.665 1106.58 265.921 1106.58 264.949V264.835C1107.51 264.606 1108.12 263.976 1108.12 263.233V261.803C1109.97 260.887 1111.2 259.286 1111.2 257.512ZM1098.89 257.512C1098.89 255.281 1101.27 253.508 1104.27 253.508C1107.27 253.508 1109.66 255.281 1109.66 257.512C1109.66 259.514 1107.66 261.173 1105.04 261.459V260.029L1106.35 259.057C1106.66 258.828 1106.66 258.485 1106.35 258.256C1106.04 258.027 1105.58 258.027 1105.27 258.256L1104.27 258.999L1103.27 258.256C1102.96 258.027 1102.5 258.027 1102.19 258.256C1101.89 258.485 1101.89 258.828 1102.19 259.057L1103.5 260.029V261.459C1100.89 261.173 1098.89 259.514 1098.89 257.512ZM1104.27 265.521C1103.81 265.521 1103.5 265.292 1103.5 264.949H1105.04C1105.04 265.292 1104.73 265.521 1104.27 265.521ZM1106.58 263.233C1106.58 263.576 1106.27 263.805 1105.81 263.805H1102.73C1102.27 263.805 1101.96 263.576 1101.96 263.233V262.375C1102.66 262.546 1103.43 262.661 1104.27 262.661C1105.12 262.661 1105.89 262.546 1106.58 262.375V263.233Z" fill="white"/>
<g filter="url(#filter3_d_5045_360)">
<path d="M945.178 247.787H924.066C921.153 247.787 918.792 249.53 918.792 251.681V267.265C918.792 269.416 921.153 271.159 924.066 271.159H945.178C948.091 271.159 950.453 269.416 950.453 267.265V251.681C950.453 249.53 948.091 247.787 945.178 247.787Z" fill="#F58A8A"/>
</g>
<g clip-path="url(#clip2_5045_360)">
<path d="M939.572 256.94H938.802V255.796C938.802 254.217 937.078 252.936 934.954 252.936C932.83 252.936 931.106 254.217 931.106 255.796V256.94H930.336C929.49 256.94 928.797 257.455 928.797 258.084V263.805C928.797 264.434 929.49 264.949 930.336 264.949H939.572C940.418 264.949 941.111 264.434 941.111 263.805V258.084C941.111 257.455 940.418 256.94 939.572 256.94ZM934.954 262.089C934.107 262.089 933.415 261.574 933.415 260.944C933.415 260.315 934.107 259.8 934.954 259.8C935.801 259.8 936.493 260.315 936.493 260.944C936.493 261.574 935.801 262.089 934.954 262.089ZM937.34 256.94H932.568V255.796C932.568 254.818 933.638 254.022 934.954 254.022C936.27 254.022 937.34 254.818 937.34 255.796V256.94Z" fill="white"/>
</g>
<g filter="url(#filter4_d_5045_360)">
<path d="M1079.09 188.864H1057.98C1055.07 188.864 1052.71 190.608 1052.71 192.758V208.343C1052.71 210.493 1055.07 212.237 1057.98 212.237H1079.09C1082.01 212.237 1084.37 210.493 1084.37 208.343V192.758C1084.37 190.608 1082.01 188.864 1079.09 188.864Z" fill="#6FCF97"/>
</g>
<path d="M1072.96 197.386H1060.39V203.225H1072.96V197.386Z" fill="white"/>
<path d="M1076.34 198.548L1073.57 199.415V201.221L1076.34 202.088H1077.35V198.548H1076.34Z" fill="white"/>
<path d="M1019.36 346.167C1018.51 349.496 1019.66 351.415 1020.57 351.888C1022.37 352.826 1024.39 354 1024.39 354C1024.39 354 1036.92 375.466 1040.55 377.002C1044.79 378.795 1054.47 379.726 1054.47 379.726L1058.71 371.252C1058.71 371.252 1049.02 369.133 1044.79 368.225C1041.93 367.613 1029.35 354 1029.35 354L1031.77 349.763H1027.23C1023.9 347.342 1022.1 342.354 1022.1 342.354C1022.1 342.354 1019.94 343.894 1019.36 346.167Z" fill="url(#paint2_linear_5045_360)"/>
<path d="M1069 384.684C1067.48 383.158 1058.71 380.743 1054.51 379.726L1058.71 371.337C1060.36 371.337 1065.19 370.955 1071.29 369.43C1078.92 367.523 1081.59 360.659 1090.36 367.904C1097.38 373.701 1109.56 399.048 1114.77 410.997C1106.57 418.809 1101.13 421.346 1090.36 423.582C1089.72 422.311 1087.84 418.014 1085.4 410.997C1082.35 402.226 1072.82 402.226 1071.29 399.175C1069.77 396.124 1070.91 386.591 1069 384.684Z" fill="url(#paint3_linear_5045_360)"/>
<path d="M1096.46 471.251C1093.72 465.149 1093.67 436.166 1092.65 422.819C1101.95 420.991 1106.86 418.636 1114.77 410.616C1114.77 410.616 1127.73 416.717 1126.97 430.828C1126.21 444.938 1131.94 452.062 1135.36 456.76C1138.41 460.954 1145.66 469.853 1149.47 475.827L1145.66 483.073C1141.46 478.624 1129.18 469.573 1122.78 464.387C1116.37 459.2 1114.26 446.209 1113.24 439.217C1112.61 446.59 1109.43 460.115 1110.95 464.387C1112.48 468.658 1128.88 481.547 1135.36 488.03L1133.07 494.513C1122.01 489.302 1099.21 477.353 1096.46 471.251Z" fill="url(#paint4_linear_5045_360)"/>
<path d="M1064.43 358.752C1064.73 357.532 1064.3 353.921 1064.81 352.65C1068.47 353.26 1070.53 355.828 1071.29 356.845C1072.06 356.718 1073.15 356.364 1073.58 357.226C1073.96 357.989 1073.58 359.515 1072.44 360.659L1075.11 367.904C1073.84 368.726 1073.07 369.002 1071.67 369.43C1072.44 367.523 1072.06 365.998 1071.67 365.235C1068.93 367.37 1067.86 367.269 1066.72 367.142L1065.57 362.184L1063.67 362.565C1064.05 361.93 1064.12 359.972 1064.43 358.752Z" fill="url(#paint5_linear_5045_360)"/>
<path d="M1071.29 356.845C1069.77 354.71 1066.08 353.159 1064.43 352.65C1061.38 350.362 1062.9 345.405 1070.15 343.116C1077.39 340.828 1080.45 346.93 1081.97 348.455C1083.5 349.981 1084.26 354.938 1091.12 357.989C1097.99 361.04 1097.61 357.226 1101.8 357.226C1106 357.226 1107.9 359.896 1107.14 362.184C1106.38 364.472 1106 367.142 1110.57 370.192C1115.15 373.243 1110.95 377.438 1110.57 382.014C1110.19 386.591 1104.09 384.303 1097.61 384.303C1091.12 384.303 1092.27 384.303 1091.12 380.108C1089.98 375.913 1088.07 374.387 1085.78 373.243C1083.5 372.099 1078.16 372.862 1077.01 371.718C1076.1 370.803 1073.58 363.964 1072.44 360.659C1072.95 359.896 1073.89 358.142 1073.58 357.226C1073.28 356.311 1071.93 356.591 1071.29 356.845Z" fill="#F2994A"/>
<path d="M1056.8 402.989L1075.11 401.845C1077.24 402.15 1080.83 404.768 1082.35 406.04C1081.84 407.184 1080.37 409.472 1078.54 409.472C1076.71 409.472 1063.28 407.184 1056.8 406.04H1055.28V400.319L1056.8 402.989Z" fill="url(#paint6_linear_5045_360)"/>
<path d="M1055.28 408.709V395.743H1048.79V408.709H1055.28Z" fill="#F2C94C"/>
<path d="M1145.66 505.191C1143.83 504.886 1136.38 497.818 1133.07 494.513L1135.36 488.03C1136.89 488.666 1140.09 489.785 1140.7 490.7C1141.46 491.844 1147.94 505.573 1145.66 505.191Z" fill="#5A98D0"/>
<path d="M1154.81 496.802C1153.89 495.276 1148.33 487.903 1145.66 483.073L1149.47 475.827C1151.25 477.353 1151.38 477.353 1153.28 480.022C1154.17 481.263 1155.95 498.708 1154.81 496.802Z" fill="#5A98D0"/>
<path opacity="0.2" d="M1115.53 428.158L1113.24 439.599C1113.62 443.794 1115.91 454.09 1119.72 461.336C1115.15 446.844 1116.67 436.039 1115.53 428.158Z" fill="black"/>
<path d="M787.202 599.385L786.058 595.572L792.16 594.428C795.083 595.953 800.702 599.309 799.787 600.529C799.482 601.14 791.27 600.021 787.202 599.385Z" fill="#D06262"/>
<path d="M756.313 563.538L759.745 569.258C759.491 573.199 758.677 580.928 757.457 580.318C756.236 579.708 752.372 569.894 750.592 565.064L756.313 563.538Z" fill="#D06262"/>
<path d="M736.351 529.211C732.286 524.99 728.592 517.032 727.254 513.581C731.165 511.689 739.856 507.366 743.334 505.208C746.812 503.05 753.408 498.154 756.272 495.976C757.942 497.482 762.803 501.196 768.882 504.007C784.496 511.379 793.414 520.899 796.495 529.424C798.961 536.243 788.86 546.338 783.122 550.568C779.797 544.918 777.796 542.632 773.855 537.251L775.194 531L767.32 528.661C768.484 530.213 772.299 535.326 778.246 543.357C788.977 556.769 792.693 579.686 793.21 589.468C791.208 589.907 786.279 590.718 782.577 590.446C782.14 585.695 776.187 575.14 770.503 565.795C769.346 567.179 767.744 568.833 766.81 568.918C762.086 567.515 760.622 561.318 760.481 558.395L764.052 555.404C763.562 554.622 763.104 553.889 762.685 553.213C756.84 543.794 741.432 534.488 736.351 529.211Z" fill="#1F3F68"/>
<path d="M757.722 495.077C746.636 503.628 723.69 518.963 720.589 511.896C716.713 503.061 717.473 502.991 715.329 500.508C713.186 498.024 712.662 492.328 711.693 490.119C711.206 489.009 707.279 484.153 704.14 478.176C704.14 478.176 704.046 478.003 703.887 477.687C701.658 473.338 699.898 468.444 700.187 463.987C700.409 457.456 705.377 453.244 705.377 453.244C708.337 450.088 711.114 449.558 712.076 449.643L712.094 449.655C714.409 451.229 717.831 453.556 719.043 453.445C720.258 453.333 721.991 451.039 723.135 449.895C728.936 450.51 730.708 449.024 735.242 449.643C740.834 450.406 755.932 458.285 767.754 437.31C768.928 437.585 771.575 438.629 773.474 438.454C766.991 457.522 761.271 463.457 755.932 465.326C751.834 466.76 748.606 467.16 746.056 467.133C745.588 469.621 744.966 473.71 743.929 477.88C746.061 481.781 748.313 485.365 750.083 486.971C754.679 491.144 759.869 493.447 757.722 495.077Z" fill="white"/>
<path d="M757.503 517.692L767.735 529.005L775.195 531L774.75 534.488C776.462 532.288 778.657 527.005 773.737 523.475C768.817 519.945 760.864 518.149 757.503 517.692Z" fill="black" fill-opacity="0.2"/>
<path d="M764.034 555.387L770.364 565.911L769.329 567.155C768.395 565.326 765.942 563.637 763.869 561.913C762.21 560.534 761.862 558.14 761.896 557.116L764.034 555.387Z" fill="black" fill-opacity="0.2"/>
<path d="M734.626 497.967C723.798 496.818 710.629 485.494 705.398 479.975C717.494 490.735 731.549 493.655 736.001 492.096C739.563 490.849 742.293 481.568 743.728 477.734L746.625 482.694C747.137 488.263 745.455 499.116 734.626 497.967Z" fill="black" fill-opacity="0.2"/>
<path d="M730.737 476.496C728.336 476.935 722.123 471.671 719.335 469.119C729.597 476.601 729.618 472.776 742.584 463.624C742.021 464.442 736.482 475.446 730.737 476.496Z" fill="black" fill-opacity="0.2"/>
<path d="M746.398 465.531C745.091 465.268 743.954 464.826 742.584 463.624L743.728 460.954C743.601 460.319 743.423 458.895 743.728 458.285C744.033 457.675 745.253 457.014 745.635 456.76L745.253 458.666L747.16 456.378L750.211 459.048L749.83 461.717L747.542 462.861L746.398 465.531Z" fill="#F2994A"/>
<path d="M774.236 434.641L773.473 438.455C772.253 438.76 769.024 437.819 767.753 437.311C768.134 436.166 769.355 433.116 769.66 431.59C769.965 430.065 772.838 428.412 774.236 427.777H775.761L774.236 430.446V434.641Z" fill="#F2994A"/>
<path d="M710.169 441.887C710.779 443.107 712.457 445.7 713.22 446.844C713.728 445.827 714.44 443.565 713.22 442.65C711.999 441.734 710.932 440.234 710.55 439.599C710.932 439.344 711.923 438.836 712.838 438.836C712.228 434.26 715.381 432.607 717.033 432.353L723.516 431.972L723.898 433.878C726.313 431.59 730.686 426.633 728.855 425.107C726.567 423.201 719.703 428.158 715.126 428.158C710.55 428.158 708.643 430.446 707.499 432.734C706.355 435.022 709.406 440.361 710.169 441.887Z" fill="#316099"/>
<path d="M718.941 453.709C717.72 453.709 714.237 451.293 712.076 449.895C713.093 449.387 713.602 447.454 713.602 446.844C713.602 446.082 714.364 443.031 713.602 442.649C712.839 442.268 710.551 440.743 710.551 439.98C710.551 439.37 712.076 439.217 712.839 439.217C712.585 437.946 712.534 435.022 714.364 433.497C716.195 431.971 721.229 431.844 723.517 431.971C723.644 432.48 724.127 434.641 725.042 439.217C725.957 443.793 723.898 445.954 722.754 446.463L723.135 449.895C722.246 451.039 720.161 453.709 718.941 453.709Z" fill="#F2994A"/>
<path d="M792.16 594.428L791.779 589.852C789.086 590.573 787.486 590.701 784.533 590.614L786.058 595.572L792.16 594.428Z" fill="#98C3E8"/>
<path d="M759.745 569.259L764.321 567.733C762.279 565.386 761.591 564.047 760.889 561.631L756.313 563.538L759.745 569.259Z" fill="#98C3E8"/>
<rect opacity="0.8" x="780.338" y="380.489" width="203.096" height="144.381" rx="5" fill="url(#paint7_linear_5045_360)"/>
<path d="M780.338 385.489C780.338 382.728 782.577 380.489 785.338 380.489H839.053V524.87H785.338C782.577 524.87 780.338 522.632 780.338 519.87V385.489Z" fill="white"/>
<circle cx="789.49" cy="389.641" r="3.05082" fill="#FA9595"/>
<circle cx="799.406" cy="389.641" r="3.05082" fill="#FDF397"/>
<circle cx="808.558" cy="389.641" r="3.05082" fill="#C1FEBB"/>
<path opacity="0.4" fill-rule="evenodd" clip-rule="evenodd" d="M787.203 461.336H831.44V466.675H787.203V461.336ZM787.203 472.014H831.44V477.353H787.203V472.014ZM816.948 484.217H787.203V489.556H816.948V484.217Z" fill="#5A98D0"/>
<path opacity="0.1" fill-rule="evenodd" clip-rule="evenodd" d="M922.201 399.557H966.438V404.895H922.201V399.557ZM922.201 410.234H966.438V415.573H922.201V410.234ZM951.946 422.438H922.201V427.777H951.946V422.438Z" fill="black"/>
<g filter="url(#filter5_d_5045_360)">
<rect x="774.236" y="400.319" width="61.7791" height="38.1353" rx="5" fill="#56CCF2"/>
</g>
<path d="M794.547 421.981C793.891 421.085 792.963 420.637 791.747 420.637C790.643 420.637 789.715 421.037 788.931 421.853C788.147 422.669 787.763 423.661 787.763 424.845C787.763 426.013 788.147 427.021 788.931 427.837C789.715 428.653 790.643 429.053 791.747 429.053C792.963 429.053 793.891 428.605 794.547 427.693V428.845H796.275V420.845H794.547V421.981ZM790.211 426.685C789.731 426.189 789.491 425.581 789.491 424.845C789.491 424.109 789.731 423.501 790.211 423.021C790.691 422.525 791.299 422.285 792.019 422.285C792.739 422.285 793.347 422.525 793.827 423.021C794.307 423.501 794.547 424.109 794.547 424.845C794.547 425.581 794.307 426.189 793.827 426.685C793.347 427.165 792.739 427.405 792.019 427.405C791.299 427.405 790.691 427.165 790.211 426.685ZM803.281 417.437C800.913 417.293 799.665 418.493 799.665 420.685V420.845H798.449V422.509H799.665V428.845H801.393V422.509H803.281V420.845H801.393V420.685C801.393 419.517 802.017 418.989 803.281 419.101V417.437ZM806.82 420.845H805.092V428.845H806.82V424.813C806.82 423.997 807.06 423.405 807.556 423.053C808.052 422.685 808.628 422.525 809.284 422.573V420.701C808.084 420.701 807.252 421.197 806.82 422.189V420.845ZM812.993 419.325C813.441 418.877 813.441 418.205 813.009 417.773C812.577 417.325 811.873 417.325 811.441 417.773C811.009 418.205 811.009 418.877 811.441 419.325C811.889 419.757 812.561 419.757 812.993 419.325ZM813.089 428.845V420.845H811.361V428.845H813.089ZM822.231 421.981C821.575 421.085 820.647 420.637 819.431 420.637C818.327 420.637 817.399 421.037 816.615 421.853C815.831 422.669 815.447 423.661 815.447 424.845C815.447 426.013 815.831 427.021 816.615 427.837C817.399 428.653 818.327 429.053 819.431 429.053C820.647 429.053 821.575 428.605 822.231 427.693V428.845H823.959V420.845H822.231V421.981ZM817.895 426.685C817.415 426.189 817.175 425.581 817.175 424.845C817.175 424.109 817.415 423.501 817.895 423.021C818.375 422.525 818.983 422.285 819.703 422.285C820.423 422.285 821.031 422.525 821.511 423.021C821.991 423.501 822.231 424.109 822.231 424.845C822.231 425.581 821.991 426.189 821.511 426.685C821.031 427.165 820.423 427.405 819.703 427.405C818.983 427.405 818.375 427.165 817.895 426.685ZM830.981 420.637C829.845 420.637 829.029 421.053 828.501 421.869V420.845H826.773V428.845H828.501V424.557C828.501 423.005 829.317 422.253 830.533 422.253C831.637 422.253 832.325 422.909 832.325 424.109V428.845H834.053V423.933C834.053 421.885 832.821 420.637 830.981 420.637Z" fill="white"/>
<rect x="852.032" y="394.218" width="60.2537" height="58.7283" rx="5" fill="#EB5757"/>
<g clip-path="url(#clip3_5045_360)">
<path d="M875.676 413.285V434.641L892.455 423.963L875.676 413.285Z" fill="white"/>
</g>
<g filter="url(#filter6_d_5045_360)">
<rect x="852.032" y="462.861" width="117.457" height="48.0504" rx="5" fill="#6FCF97"/>
</g>
<path d="M862.329 497.183C869.574 492.225 872.625 485.742 886.354 485.742C900.083 485.742 901.287 493.369 909.616 493.369C919.531 493.369 929.065 478.497 939.743 478.497C950.421 478.497 953.091 486.124 958.811 486.505" stroke="black" stroke-opacity="0.1" stroke-width="2" stroke-linecap="round" stroke-linejoin="round"/>
<path d="M861.947 497.564C869.193 492.607 871.1 478.115 884.828 478.115C898.557 478.115 901.669 490.7 909.998 490.7C919.913 490.7 928.684 470.107 939.362 470.107C950.04 470.107 953.472 486.124 959.192 486.505" stroke="white" stroke-width="2" stroke-linecap="round" stroke-linejoin="round"/>
<defs>
<filter id="filter0_d_5045_360" x="933.217" y="232.863" width="167.118" height="167.118" filterUnits="userSpaceOnUse" color-interpolation-filters="sRGB">
<feFlood flood-opacity="0" result="BackgroundImageFix"/>
<feColorMatrix in="SourceAlpha" type="matrix" values="0 0 0 0 0 0 0 0 0 0 0 0 0 0 0 0 0 0 127 0" result="hardAlpha"/>
<feOffset/>
<feGaussianBlur stdDeviation="25"/>
<feColorMatrix type="matrix" values="0 0 0 0 0.0627451 0 0 0 0 0.439216 0 0 0 0 0.694118 0 0 0 0.25 0"/>
<feBlend mode="normal" in2="BackgroundImageFix" result="effect1_dropShadow_5045_360"/>
<feBlend mode="normal" in="SourceGraphic" in2="effect1_dropShadow_5045_360" result="shape"/>
</filter>
<filter id="filter1_d_5045_360" x="944.301" y="178.864" width="61.6611" height="53.3724" filterUnits="userSpaceOnUse" color-interpolation-filters="sRGB">
<feFlood flood-opacity="0" result="BackgroundImageFix"/>
<feColorMatrix in="SourceAlpha" type="matrix" values="0 0 0 0 0 0 0 0 0 0 0 0 0 0 0 0 0 0 127 0" result="hardAlpha"/>
<feOffset dx="5" dy="5"/>
<feGaussianBlur stdDeviation="7.5"/>
<feColorMatrix type="matrix" values="0 0 0 0 0 0 0 0 0 0 0 0 0 0 0 0 0 0 0.15 0"/>
<feBlend mode="normal" in2="BackgroundImageFix" result="effect1_dropShadow_5045_360"/>
<feBlend mode="normal" in="SourceGraphic" in2="effect1_dropShadow_5045_360" result="shape"/>
</filter>
<filter id="filter2_d_5045_360" x="1078.11" y="237.787" width="61.6611" height="53.3724" filterUnits="userSpaceOnUse" color-interpolation-filters="sRGB">
<feFlood flood-opacity="0" result="BackgroundImageFix"/>
<feColorMatrix in="SourceAlpha" type="matrix" values="0 0 0 0 0 0 0 0 0 0 0 0 0 0 0 0 0 0 127 0" result="hardAlpha"/>
<feOffset dx="5" dy="5"/>
<feGaussianBlur stdDeviation="7.5"/>
<feColorMatrix type="matrix" values="0 0 0 0 0 0 0 0 0 0 0 0 0 0 0 0 0 0 0.15 0"/>
<feBlend mode="normal" in2="BackgroundImageFix" result="effect1_dropShadow_5045_360"/>
<feBlend mode="normal" in="SourceGraphic" in2="effect1_dropShadow_5045_360" result="shape"/>
</filter>
<filter id="filter3_d_5045_360" x="908.792" y="237.787" width="61.6611" height="53.3724" filterUnits="userSpaceOnUse" color-interpolation-filters="sRGB">
<feFlood flood-opacity="0" result="BackgroundImageFix"/>
<feColorMatrix in="SourceAlpha" type="matrix" values="0 0 0 0 0 0 0 0 0 0 0 0 0 0 0 0 0 0 127 0" result="hardAlpha"/>
<feOffset dx="5" dy="5"/>
<feGaussianBlur stdDeviation="7.5"/>
<feColorMatrix type="matrix" values="0 0 0 0 0 0 0 0 0 0 0 0 0 0 0 0 0 0 0.15 0"/>
<feBlend mode="normal" in2="BackgroundImageFix" result="effect1_dropShadow_5045_360"/>
<feBlend mode="normal" in="SourceGraphic" in2="effect1_dropShadow_5045_360" result="shape"/>
</filter>
<filter id="filter4_d_5045_360" x="1042.71" y="178.864" width="61.6611" height="53.3724" filterUnits="userSpaceOnUse" color-interpolation-filters="sRGB">
<feFlood flood-opacity="0" result="BackgroundImageFix"/>
<feColorMatrix in="SourceAlpha" type="matrix" values="0 0 0 0 0 0 0 0 0 0 0 0 0 0 0 0 0 0 127 0" result="hardAlpha"/>
<feOffset dx="5" dy="5"/>
<feGaussianBlur stdDeviation="7.5"/>
<feColorMatrix type="matrix" values="0 0 0 0 0 0 0 0 0 0 0 0 0 0 0 0 0 0 0.15 0"/>
<feBlend mode="normal" in2="BackgroundImageFix" result="effect1_dropShadow_5045_360"/>
<feBlend mode="normal" in="SourceGraphic" in2="effect1_dropShadow_5045_360" result="shape"/>
</filter>
<filter id="filter5_d_5045_360" x="769.236" y="395.319" width="81.7793" height="58.1353" filterUnits="userSpaceOnUse" color-interpolation-filters="sRGB">
<feFlood flood-opacity="0" result="BackgroundImageFix"/>
<feColorMatrix in="SourceAlpha" type="matrix" values="0 0 0 0 0 0 0 0 0 0 0 0 0 0 0 0 0 0 127 0" result="hardAlpha"/>
<feOffset dx="5" dy="5"/>
<feGaussianBlur stdDeviation="5"/>
<feColorMatrix type="matrix" values="0 0 0 0 0.0627451 0 0 0 0 0.439216 0 0 0 0 0.694118 0 0 0 0.2 0"/>
<feBlend mode="normal" in2="BackgroundImageFix" result="effect1_dropShadow_5045_360"/>
<feBlend mode="normal" in="SourceGraphic" in2="effect1_dropShadow_5045_360" result="shape"/>
</filter>
<filter id="filter6_d_5045_360" x="842.032" y="456.861" width="137.457" height="68.0504" filterUnits="userSpaceOnUse" color-interpolation-filters="sRGB">
<feFlood flood-opacity="0" result="BackgroundImageFix"/>
<feColorMatrix in="SourceAlpha" type="matrix" values="0 0 0 0 0 0 0 0 0 0 0 0 0 0 0 0 0 0 127 0" result="hardAlpha"/>
<feOffset dy="4"/>
<feGaussianBlur stdDeviation="5"/>
<feColorMatrix type="matrix" values="0 0 0 0 0.435294 0 0 0 0 0.811765 0 0 0 0 0.592157 0 0 0 0.2 0"/>
<feBlend mode="normal" in2="BackgroundImageFix" result="effect1_dropShadow_5045_360"/>
<feBlend mode="normal" in="SourceGraphic" in2="effect1_dropShadow_5045_360" result="shape"/>
</filter>
<linearGradient id="paint0_linear_5045_360" x1="683" y1="768" x2="683" y2="529" gradientUnits="userSpaceOnUse">
<stop offset="0.283925" stop-color="#98C3E8"/>
<stop offset="1" stop-color="#98C3E8" stop-opacity="0"/>
</linearGradient>
<linearGradient id="paint1_linear_5045_360" x1="924.196" y1="133.129" x2="895.348" y2="644.771" gradientUnits="userSpaceOnUse">
<stop stop-color="#D1ECFF"/>
<stop offset="1" stop-color="#1070B1"/>
</linearGradient>
<linearGradient id="paint2_linear_5045_360" x1="1064.62" y1="351.945" x2="1025.14" y2="377.739" gradientUnits="userSpaceOnUse">
<stop stop-color="#FFF8E1"/>
<stop offset="1" stop-color="#FFCC80"/>
</linearGradient>
<linearGradient id="paint3_linear_5045_360" x1="1084.64" y1="364.656" x2="1084.64" y2="423.582" gradientUnits="userSpaceOnUse">
<stop stop-color="#AF6CED"/>
<stop offset="1" stop-color="#5E199D"/>
</linearGradient>
<linearGradient id="paint4_linear_5045_360" x1="1121.06" y1="410.616" x2="1121.06" y2="494.513" gradientUnits="userSpaceOnUse">
<stop stop-color="#EB5757"/>
<stop offset="1" stop-color="#872727"/>
</linearGradient>
<linearGradient id="paint5_linear_5045_360" x1="1076.81" y1="356.957" x2="1062.99" y2="362.76" gradientUnits="userSpaceOnUse">
<stop stop-color="#FFF8E1"/>
<stop offset="1" stop-color="#FFCC80"/>
</linearGradient>
<linearGradient id="paint6_linear_5045_360" x1="1086.39" y1="402.668" x2="1077.48" y2="418.898" gradientUnits="userSpaceOnUse">
<stop stop-color="#FFF8E1"/>
<stop offset="1" stop-color="#FFCC80"/>
</linearGradient>
<linearGradient id="paint7_linear_5045_360" x1="785.214" y1="433.234" x2="1018.22" y2="458.785" gradientUnits="userSpaceOnUse">
<stop offset="0.127122" stop-color="white"/>
<stop offset="0.972261" stop-color="white" stop-opacity="0.8"/>
</linearGradient>
<clipPath id="clip0_5045_360">
<rect width="36.6098" height="36.6098" fill="white" transform="translate(998.472 298.117)"/>
</clipPath>
<clipPath id="clip1_5045_360">
<rect width="18.4712" height="13.7296" fill="white" transform="translate(961.122 193.441)"/>
</clipPath>
<clipPath id="clip2_5045_360">
<rect width="18.4712" height="13.7296" fill="white" transform="translate(925.718 252.364)"/>
</clipPath>
<clipPath id="clip3_5045_360">
<rect width="36.6098" height="36.6098" fill="white" transform="translate(863.473 405.658)"/>
</clipPath>
</defs>
</svg>
